<?xml version="1.0" encoding="UTF-8"?>
<svg data-name="Layer 1" version="1.1" viewBox="0 0 454.06 137.04" xmlns="http://www.w3.org/2000/svg" xmlnsCc="http://creativecommons.org/ns#" xmlnsDc="http://purl.org/dc/elements/1.1/" xmlnsRdf="http://www.w3.org/1999/02/22-rdf-syntax-ns#">
    <defs>
        <style>.cls-1{fill:#87a5a9;}.cls-2,.cls-3{fill:#fff;stroke:#000;stroke-linecap:square;stroke-linejoin:round;}.cls-2{stroke-width:2px;}.cls-3{stroke-width:0.25px;}</style>
    </defs>
    <title>laiout logo</title>
    <polygon class="cls-1" points="78.985 20.591 89.91 28.445 57.531 73.483 86.021 93.964 75.569 108.5 36.155 80.167" />
    <line class="cls-2" x1="92.785" x2="21.757" y1="1.3957" y2="100.2" />
    <line class="cls-2" x1="91.249" x2="20.221" y1="26.582" y2="125.38" />
    <line class="cls-2" x1="103.47" x2="22.062" y1="128.56" y2="70.035" />
    <line class="cls-2" x1="96.479" x2="15.068" y1="101.48" y2="42.956" />
    <line class="cls-3" x1="120.59" x2="21.795" y1="76.248" y2="5.2202" />
    <line class="cls-3" x1="86.739" x2=".17446" y1="78.671" y2="16.438" />
    <line class="cls-3" x1="41.904" x2="97.793" y1="124.96" y2="47.214" />
    <line class="cls-3" x1="5.7363" x2="72.196" y1="105.79" y2="13.344" />
    <line class="cls-3" x1="92.24" x2="11.848" y1="135.48" y2="77.684" />
    <line class="cls-3" x1="102.16" x2="3.3607" y1="115.85" y2="44.821" />
    <g class="cls-4" transform="translate(138.65 102.75)" aria-label="laiout">
        <path d="m7.3705-82.332h7.6435v82.332h-7.6435z" />
        <path d="m74.933-59.401h14.85v59.401h-14.85v-6.2786q-4.3677 4.1493-8.79 6.0056-4.3677 1.8017-9.4998 1.8017-11.52 0-19.928-8.8992-8.4079-8.9538-8.4079-22.221 0-13.758 8.1349-22.548 8.1349-8.79 19.764-8.79 5.3505 0 10.046 2.0201 4.6953 2.0201 8.6809 6.0602zm-15.669 12.23q-6.9338 0-11.52 4.9137-4.5861 4.8591-4.5861 12.503 0 7.6981 4.6407 12.666 4.6953 4.9683 11.52 4.9683 7.043 0 11.684-4.8591 4.6407-4.9137 4.6407-12.83 0-7.7527-4.6407-12.557-4.6407-4.8045-11.738-4.8045z" />
        <path d="m111.81-83.86q3.931 0 6.7154 2.839 2.839 2.839 2.839 6.8792 0 3.9856-2.7844 6.8246-2.7844 2.7844-6.6608 2.7844-3.9856 0-6.8246-2.839-2.7844-2.8936-2.7844-6.9884 0-3.931 2.7844-6.7154 2.7844-2.7844 6.7154-2.7844zm-7.4797 24.459h14.959v59.401h-14.959z" />
        <path d="m163-60.93q13.704 0 22.712 9.9366 8.1895 9.063 8.1895 21.456 0 12.448-8.6808 21.784-8.6263 9.2814-22.221 9.2814-13.649 0-22.33-9.2814-8.6263-9.336-8.6263-21.784 0-12.339 8.1895-21.402 9.0084-9.9912 22.767-9.9912zm0 7.4797q-9.4998 0-16.324 7.043-6.8246 7.043-6.8246 17.034 0 6.4424 3.112 12.011 3.112 5.5688 8.4079 8.6263 5.2959 3.0028 11.629 3.0028t11.629-3.0028q5.2959-3.0574 8.4079-8.6263 3.112-5.5689 3.112-12.011 0-9.9912-6.8792-17.034-6.8246-7.043-16.27-7.043z" />
        <path d="m208.23-59.401h7.6981v27.735q0 10.155 1.0919 13.977 1.6379 5.4597 6.224 8.6263 4.6407 3.1666 11.029 3.1666t10.81-3.0574q4.4769-3.112 6.1694-8.1349 1.1465-3.4396 1.1465-14.577v-27.735h7.8073v29.155q0 12.284-2.8936 18.508-2.839 6.224-8.6263 9.7728-5.7326 3.4942-14.413 3.4942-8.6809 0-14.523-3.4942-5.7872-3.5488-8.6809-9.8274-2.839-6.3332-2.839-19z" />
        <path d="m284.96-81.458h7.6981v22.057h12.12v6.5516h-12.12v52.849h-7.6981v-52.849h-10.428v-6.5516h10.428z" />
    </g>
    <path d="m125.67 63.66a60.843 60.843 0 0 1-60.843 60.843 60.843 60.843 0 0 1-60.843-60.843 60.843 60.843 0 0 1 60.843-60.843 60.843 60.843 0 0 1 60.843 60.843z" fill="none" stroke="#000000" stroke-width=".25" />
    <metadata>
        <rdfRDF>
            <ccWork rdfAbout="">
                <dcTitle>laiout logo</dcTitle>
            </ccWork>
        </rdfRDF>
    </metadata>
</svg>